<svg xmlns="http://www.w3.org/2000/svg" width="26" height="26" viewBox="0 0 26 26">
  <path id="ic_phone_in_talk_24px" d="M27.556,21.056a16.409,16.409,0,0,1-5.157-.823,1.474,1.474,0,0,0-1.473.347l-3.178,3.178a21.732,21.732,0,0,1-9.519-9.519l3.178-3.192A1.387,1.387,0,0,0,11.768,9.6a16.409,16.409,0,0,1-.823-5.157A1.449,1.449,0,0,0,9.5,3H4.444A1.449,1.449,0,0,0,3,4.444,24.553,24.553,0,0,0,27.556,29,1.449,1.449,0,0,0,29,27.556V22.5A1.449,1.449,0,0,0,27.556,21.056Z" transform="translate(-3 -3)" fill="#7ebb55"/>
</svg>
