<svg xmlns="http://www.w3.org/2000/svg" width="28.352" height="22.682" viewBox="0 0 28.352 22.682">
  <path id="ic_local_activity_24px" d="M27.517,15.341a2.844,2.844,0,0,1,2.835-2.835V6.835A2.844,2.844,0,0,0,27.517,4H4.835A2.831,2.831,0,0,0,2.014,6.835v5.67A2.835,2.835,0,0,1,2,18.176v5.67a2.844,2.844,0,0,0,2.835,2.835H27.517a2.844,2.844,0,0,0,2.835-2.835v-5.67A2.844,2.844,0,0,1,27.517,15.341Zm-6.266,6.8-5.075-3.26L11.1,22.145,12.632,16.3,7.968,12.491l6.011-.354,2.2-5.585,2.183,5.6,6.011.354-4.664,3.813,1.545,5.826Z" transform="translate(-2 -4)" fill="#ffb500"/>
</svg>
