<svg xmlns="http://www.w3.org/2000/svg" xmlns:xlink="http://www.w3.org/1999/xlink" width="58" height="58" viewBox="0 0 58 58">
  <defs>
    <filter id="Path_35" x="0" y="0" width="58" height="58" filterUnits="userSpaceOnUse">
      <feOffset dy="3" input="SourceAlpha"/>
      <feGaussianBlur stdDeviation="3" result="blur"/>
      <feFlood flood-opacity="0.161"/>
      <feComposite operator="in" in2="blur"/>
      <feComposite in="SourceGraphic"/>
    </filter>
  </defs>
  <g id="Group_183" data-name="Group 183" transform="translate(-866 -4276)">
    <g transform="matrix(1, 0, 0, 1, 866, 4276)" filter="url(#Path_35)">
      <g id="Path_35-2" data-name="Path 35" transform="translate(14 11)" fill="#fff">
        <path d="M15,0A15,15,0,1,1,0,15,15,15,0,0,1,15,0Z" stroke="none"/>
        <path d="M 14.99999904632568 -1.9073486328125e-06 C 6.715728759765625 -1.9073486328125e-06 -1.9073486328125e-06 6.715728759765625 -1.9073486328125e-06 14.99999904632568 C -1.9073486328125e-06 23.28426933288574 6.715728759765625 30 14.99999904632568 30 C 23.28426933288574 30 30 23.28426933288574 30 14.99999904632568 C 30 6.715728759765625 23.28426933288574 -1.9073486328125e-06 14.99999904632568 -1.9073486328125e-06 M 14.99999904632568 -5.000001907348633 C 17.69777870178223 -5.000001907348633 20.31752014160156 -4.470510482788086 22.78643798828125 -3.426252365112305 C 25.16861915588379 -2.418672561645508 27.30697822570801 -0.9772911071777344 29.14213943481445 0.8578586578369141 C 30.9772891998291 2.693019866943359 32.41867065429688 4.831378936767578 33.42625045776367 7.213558197021484 C 34.47050857543945 9.682479858398438 35 12.30221939086914 35 14.99999904632568 C 35 17.69777870178223 34.47050857543945 20.31752014160156 33.42625045776367 22.78643798828125 C 32.41867065429688 25.16861915588379 30.9772891998291 27.30697822570801 29.14213943481445 29.14213943481445 C 27.30697822570801 30.9772891998291 25.16861915588379 32.41867065429688 22.78643798828125 33.42625045776367 C 20.31752014160156 34.47050857543945 17.69777870178223 35 14.99999904632568 35 C 12.30221939086914 35 9.682479858398438 34.47050857543945 7.213558197021484 33.42625045776367 C 4.831378936767578 32.41867065429688 2.693019866943359 30.9772891998291 0.8578586578369141 29.14213943481445 C -0.9772911071777344 27.30697822570801 -2.418672561645508 25.16861915588379 -3.426252365112305 22.78643798828125 C -4.470510482788086 20.31752014160156 -5.000001907348633 17.69777870178223 -5.000001907348633 14.99999904632568 C -5.000001907348633 12.30221939086914 -4.470510482788086 9.682479858398438 -3.426252365112305 7.213558197021484 C -2.418672561645508 4.831378936767578 -0.9772911071777344 2.693019866943359 0.8578586578369141 0.8578586578369141 C 2.693019866943359 -0.9772911071777344 4.831378936767578 -2.418672561645508 7.213558197021484 -3.426252365112305 C 9.682479858398438 -4.470510482788086 12.30221939086914 -5.000001907348633 14.99999904632568 -5.000001907348633 Z" stroke="none" fill="rgba(255,255,255,0.3)"/>
      </g>
    </g>
    <path id="ic_favorite_24px" d="M9.115,16.056l-1.032-.939C4.419,11.794,2,9.6,2,6.913A3.875,3.875,0,0,1,5.913,3a4.261,4.261,0,0,1,3.2,1.487A4.261,4.261,0,0,1,12.317,3,3.875,3.875,0,0,1,16.23,6.913c0,2.689-2.419,4.881-6.083,8.211Z" transform="translate(885.885 4292.531)" fill="#ee4f3f"/>
  </g>
</svg>
